{
  "accessors": [
    {
      "bufferView": 2,
      "componentType": 5126,
      "count": 2939,
      "max": [
        0.9886012077331543,
        0.9688223600387573,
        0.4389609098434448
      ],
      "min": [
        -1.0113987922668457,
        -1.0311776399612427,
        -0.36812806129455566
      ],
      "type": "VEC3"
    },
    {
      "bufferView": 2,
      "byteOffset": 35268,
      "componentType": 5126,
      "count": 2939,
      "max": [
        1.0,
        1.0,
        1.0
      ],
      "min": [
        -1.0,
        -1.0,
        -1.0
      ],
      "type": "VEC3"
    },
    {
      "bufferView": 1,
      "componentType": 5126,
      "count": 2939,
      "max": [
        0.9781386256217957,
        0.9911510944366455
      ],
      "min": [
        0.0,
        0.0
      ],
      "type": "VEC2"
    },
    {
      "bufferView": 0,
      "componentType": 5125,
      "count": 7074,
      "type": "SCALAR"
    },
    {
      "bufferView": 2,
      "byteOffset": 70536,
      "componentType": 5126,
      "count": 170,
      "max": [
        1.0,
        15.47138786315918,
        1.0392789840698242
      ],
      "min": [
        -1.0,
        -1.0,
        -1.9573314189910889
      ],
      "type": "VEC3"
    },
    {
      "bufferView": 2,
      "byteOffset": 72576,
      "componentType": 5126,
      "count": 170,
      "max": [
        1.0,
        1.0,
        1.0
      ],
      "min": [
        -1.0,
        -1.0,
        -1.0
      ],
      "type": "VEC3"
    },
    {
      "bufferView": 1,
      "byteOffset": 23512,
      "componentType": 5126,
      "count": 170,
      "max": [
        0.975967288017273,
        0.9743168354034424
      ],
      "min": [
        0.024032680317759514,
        0.025683170184493065
      ],
      "type": "VEC2"
    },
    {
      "bufferView": 0,
      "byteOffset": 28296,
      "componentType": 5125,
      "count": 420,
      "type": "SCALAR"
    },
    {
      "bufferView": 2,
      "byteOffset": 74616,
      "componentType": 5126,
      "count": 232,
      "max": [
        2.0694031715393066,
        11.292871475219727,
        61.13804244995117
      ],
      "min": [
        -2.0689539909362793,
        -11.218622207641602,
        -61.237770080566406
      ],
      "type": "VEC3"
    },
    {
      "bufferView": 2,
      "byteOffset": 77400,
      "componentType": 5126,
      "count": 232,
      "max": [
        1.0,
        1.0,
        1.0
      ],
      "min": [
        -1.0,
        -1.0,
        -1.0
      ],
      "type": "VEC3"
    },
    {
      "bufferView": 1,
      "byteOffset": 24872,
      "componentType": 5126,
      "count": 232,
      "max": [
        0.9957195520401001,
        0.9958806037902832
      ],
      "min": [
        0.004280430730432272,
        0.00411943718791008
      ],
      "type": "VEC2"
    },
    {
      "bufferView": 0,
      "byteOffset": 29976,
      "componentType": 5125,
      "count": 348,
      "type": "SCALAR"
    },
    {
      "bufferView": 2,
      "byteOffset": 80184,
      "componentType": 5126,
      "count": 562,
      "max": [
        1.063846468925476,
        1.104418158531189,
        1.0232794284820557
      ],
      "min": [
        -1.063846468925476,
        -1.0767923593521118,
        -1.1044135093688965
      ],
      "type": "VEC3"
    },
    {
      "bufferView": 2,
      "byteOffset": 86928,
      "componentType": 5126,
      "count": 562,
      "max": [
        1.0,
        1.0,
        1.0
      ],
      "min": [
        -1.0,
        -1.0,
        -1.0
      ],
      "type": "VEC3"
    },
    {
      "bufferView": 1,
      "byteOffset": 26728,
      "componentType": 5126,
      "count": 562,
      "max": [
        0.965115487575531,
        0.9666101336479187
      ],
      "min": [
        0.034884534776210785,
        0.033389825373888016
      ],
      "type": "VEC2"
    },
    {
      "bufferView": 0,
      "byteOffset": 31368,
      "componentType": 5125,
      "count": 984,
      "type": "SCALAR"
    },
    {
      "bufferView": 2,
      "byteOffset": 93672,
      "componentType": 5126,
      "count": 1498,
      "max": [
        1.010385513305664,
        1.0092358589172363,
        0.45420610904693604
      ],
      "min": [
        -0.9896144866943359,
        -0.9960789680480957,
        -0.359036922454834
      ],
      "type": "VEC3"
    },
    {
      "bufferView": 2,
      "byteOffset": 111648,
      "componentType": 5126,
      "count": 1498,
      "max": [
        1.0,
        1.0,
        1.0
      ],
      "min": [
        -1.0,
        -1.0,
        -1.0
      ],
      "type": "VEC3"
    },
    {
      "bufferView": 1,
      "byteOffset": 31224,
      "componentType": 5126,
      "count": 1498,
      "max": [
        0.9691950678825378,
        0.9692671298980713
      ],
      "min": [
        0.003440301865339279,
        0.03073285147547722
      ],
      "type": "VEC2"
    },
    {
      "bufferView": 0,
      "byteOffset": 35304,
      "componentType": 5125,
      "count": 2328,
      "type": "SCALAR"
    },
    {
      "bufferView": 2,
      "byteOffset": 129624,
      "componentType": 5126,
      "count": 469,
      "max": [
        0.9965927600860596,
        1.038109302520752,
        0.6089028120040894
      ],
      "min": [
        -1.0034072399139404,
        -0.9618907570838928,
        -0.7244304418563843
      ],
      "type": "VEC3"
    },
    {
      "bufferView": 2,
      "byteOffset": 135252,
      "componentType": 5126,
      "count": 469,
      "max": [
        1.0,
        1.0,
        1.0
      ],
      "min": [
        -1.0,
        -1.0,
        -1.0
      ],
      "type": "VEC3"
    },
    {
      "bufferView": 1,
      "byteOffset": 43208,
      "componentType": 5126,
      "count": 469,
      "max": [
        0.9689726829528809,
        0.9686418175697327
      ],
      "min": [
        0.031027350574731827,
        0.031358182430267334
      ],
      "type": "VEC2"
    },
    {
      "bufferView": 0,
      "byteOffset": 44616,
      "componentType": 5125,
      "count": 681,
      "type": "SCALAR"
    },
    {
      "bufferView": 2,
      "byteOffset": 140880,
      "componentType": 5126,
      "count": 728,
      "max": [
        1.0,
        2.492096424102783,
        1.0140994787216187
      ],
      "min": [
        -1.0,
        -1.0,
        -1.0140994787216187
      ],
      "type": "VEC3"
    },
    {
      "bufferView": 2,
      "byteOffset": 149616,
      "componentType": 5126,
      "count": 728,
      "max": [
        1.0,
        1.0,
        1.0
      ],
      "min": [
        -1.0,
        -1.0,
        -1.0
      ],
      "type": "VEC3"
    },
    {
      "bufferView": 1,
      "byteOffset": 46960,
      "componentType": 5126,
      "count": 728,
      "max": [
        0.9839558005332947,
        0.9840900301933289
      ],
      "min": [
        0.016044234856963158,
        0.015909984707832336
      ],
      "type": "VEC2"
    },
    {
      "bufferView": 0,
      "byteOffset": 47340,
      "componentType": 5125,
      "count": 1092,
      "type": "SCALAR"
    },
    {
      "bufferView": 2,
      "byteOffset": 158352,
      "componentType": 5126,
      "count": 96,
      "max": [
        7.6666669845581055,
        1.0,
        1.0000004768371582
      ],
      "min": [
        -7.666665077209473,
        -1.0,
        -1.0000005960464478
      ],
      "type": "VEC3"
    },
    {
      "bufferView": 2,
      "byteOffset": 159504,
      "componentType": 5126,
      "count": 96,
      "max": [
        1.0,
        1.0,
        1.0
      ],
      "min": [
        -1.0,
        -1.0,
        -1.0
      ],
      "type": "VEC3"
    },
    {
      "bufferView": 1,
      "byteOffset": 52784,
      "componentType": 5126,
      "count": 96,
      "max": [
        0.9726840853691101,
        0.9727272391319275
      ],
      "min": [
        0.0273158997297287,
        0.027272723615169525
      ],
      "type": "VEC2"
    },
    {
      "bufferView": 0,
      "byteOffset": 51708,
      "componentType": 5125,
      "count": 144,
      "type": "SCALAR"
    },
    {
      "bufferView": 2,
      "byteOffset": 160656,
      "componentType": 5126,
      "count": 632,
      "max": [
        3.0791244506835938,
        11.966005325317383,
        55.98949432373047
      ],
      "min": [
        -3.079963207244873,
        -12.181647300720215,
        -56.74899673461914
      ],
      "type": "VEC3"
    },
    {
      "bufferView": 2,
      "byteOffset": 168240,
      "componentType": 5126,
      "count": 632,
      "max": [
        1.0,
        1.0,
        1.0
      ],
      "min": [
        -1.0,
        -1.0,
        -1.0
      ],
      "type": "VEC3"
    },
    {
      "bufferView": 1,
      "byteOffset": 53552,
      "componentType": 5126,
      "count": 632,
      "max": [
        0.9960831999778748,
        0.9961332082748413
      ],
      "min": [
        0.003916807007044554,
        0.003866808954626322
      ],
      "type": "VEC2"
    },
    {
      "bufferView": 0,
      "byteOffset": 52284,
      "componentType": 5125,
      "count": 936,
      "type": "SCALAR"
    },
    {
      "bufferView": 2,
      "byteOffset": 175824,
      "componentType": 5126,
      "count": 236,
      "max": [
        1.0264217853546143,
        3.075117349624634,
        1.0
      ],
      "min": [
        -1.0264217853546143,
        -1.07511568069458,
        -0.9448875188827515
      ],
      "type": "VEC3"
    },
    {
      "bufferView": 2,
      "byteOffset": 178656,
      "componentType": 5126,
      "count": 236,
      "max": [
        0.7178417444229126,
        0.8539147973060608,
        0.9996498823165894
      ],
      "min": [
        -0.7178417444229126,
        -0.8539283275604248,
        -0.9996523857116699
      ],
      "type": "VEC3"
    },
    {
      "bufferView": 1,
      "byteOffset": 58608,
      "componentType": 5126,
      "count": 236,
      "max": [
        0.9759423136711121,
        0.9774775505065918
      ],
      "min": [
        0.024057675153017044,
        0.0225224532186985
      ],
      "type": "VEC2"
    },
    {
      "bufferView": 0,
      "byteOffset": 56028,
      "componentType": 5125,
      "count": 468,
      "type": "SCALAR"
    },
    {
      "bufferView": 2,
      "byteOffset": 181488,
      "componentType": 5126,
      "count": 446,
      "max": [
        0.9930880069732666,
        1.005090594291687,
        0.4913870692253113
      ],
      "min": [
        -1.0069118738174438,
        -0.9949095249176025,
        -0.5128735899925232
      ],
      "type": "VEC3"
    },
    {
      "bufferView": 2,
      "byteOffset": 186840,
      "componentType": 5126,
      "count": 446,
      "max": [
        1.0,
        1.0,
        1.0
      ],
      "min": [
        -1.0,
        -1.0,
        -1.0
      ],
      "type": "VEC3"
    },
    {
      "bufferView": 1,
      "byteOffset": 60496,
      "componentType": 5126,
      "count": 446,
      "max": [
        0.9649192690849304,
        0.9649354219436646
      ],
      "min": [
        0.03508073836565018,
        0.03506455197930336
      ],
      "type": "VEC2"
    },
    {
      "bufferView": 0,
      "byteOffset": 57900,
      "componentType": 5125,
      "count": 693,
      "type": "SCALAR"
    },
    {
      "bufferView": 2,
      "byteOffset": 192192,
      "componentType": 5126,
      "count": 96,
      "max": [
        14.333332061767578,
        1.0,
        1.0000011920928955
      ],
      "min": [
        -14.333333969116211,
        -1.0,
        -1.000001072883606
      ],
      "type": "VEC3"
    },
    {
      "bufferView": 2,
      "byteOffset": 193344,
      "componentType": 5126,
      "count": 96,
      "max": [
        1.0,
        1.0,
        1.0
      ],
      "min": [
        -1.0,
        -1.0,
        -1.0
      ],
      "type": "VEC3"
    },
    {
      "bufferView": 1,
      "byteOffset": 64064,
      "componentType": 5126,
      "count": 96,
      "max": [
        0.9783019423484802,
        0.9805194735527039
      ],
      "min": [
        0.02169809304177761,
        0.019480517134070396
      ],
      "type": "VEC2"
    },
    {
      "bufferView": 0,
      "byteOffset": 60672,
      "componentType": 5125,
      "count": 144,
      "type": "SCALAR"
    },
    {
      "bufferView": 2,
      "byteOffset": 194496,
      "componentType": 5126,
      "count": 269,
      "max": [
        1.0033010244369507,
        0.9983881115913391,
        0.5153588056564331
      ],
      "min": [
        -0.9966989755630493,
        -1.0016118288040161,
        -0.5001026391983032
      ],
      "type": "VEC3"
    },
    {
      "bufferView": 2,
      "byteOffset": 197724,
      "componentType": 5126,
      "count": 269,
      "max": [
        1.0,
        1.0,
        1.0
      ],
      "min": [
        -1.0,
        -1.0,
        -1.0
      ],
      "type": "VEC3"
    },
    {
      "bufferView": 1,
      "byteOffset": 64832,
      "componentType": 5126,
      "count": 269,
      "max": [
        0.9615808725357056,
        0.9583971500396729
      ],
      "min": [
        0.03841910511255264,
        0.04160290211439133
      ],
      "type": "VEC2"
    },
    {
      "bufferView": 0,
      "byteOffset": 61248,
      "componentType": 5125,
      "count": 453,
      "type": "SCALAR"
    },
    {
      "bufferView": 2,
      "byteOffset": 200952,
      "componentType": 5126,
      "count": 213,
      "max": [
        1.0,
        15.47138786315918,
        1.0392789840698242
      ],
      "min": [
        -1.0,
        -1.0,
        -1.0
      ],
      "type": "VEC3"
    },
    {
      "bufferView": 2,
      "byteOffset": 203508,
      "componentType": 5126,
      "count": 213,
      "max": [
        1.0,
        1.0,
        1.0
      ],
      "min": [
        -1.0,
        -1.0,
        -1.0
      ],
      "type": "VEC3"
    },
    {
      "bufferView": 1,
      "byteOffset": 66984,
      "componentType": 5126,
      "count": 213,
      "max": [
        0.9727072715759277,
        0.9726423621177673
      ],
      "min": [
        0.027292747050523758,
        0.02735769934952259
      ],
      "type": "VEC2"
    },
    {
      "bufferView": 0,
      "byteOffset": 63060,
      "componentType": 5125,
      "count": 420,
      "type": "SCALAR"
    },
    {
      "bufferView": 2,
      "byteOffset": 206064,
      "componentType": 5126,
      "count": 362,
      "max": [
        1.0599207878112793,
        1.3327977657318115,
        1.0497677326202393
      ],
      "min": [
        -1.0373748540878296,
        -1.0,
        -1.0252090692520142
      ],
      "type": "VEC3"
    },
    {
      "bufferView": 2,
      "byteOffset": 210408,
      "componentType": 5126,
      "count": 362,
      "max": [
        1.0,
        1.0,
        1.0
      ],
      "min": [
        -1.0,
        -1.0,
        -1.0
      ],
      "type": "VEC3"
    },
    {
      "bufferView": 1,
      "byteOffset": 68688,
      "componentType": 5126,
      "count": 362,
      "max": [
        0.9662937521934509,
        0.9669054746627808
      ],
      "min": [
        0.03370629623532295,
        0.03309449926018715
      ],
      "type": "VEC2"
    },
    {
      "bufferView": 0,
      "byteOffset": 64740,
      "componentType": 5125,
      "count": 540,
      "type": "SCALAR"
    },
    {
      "bufferView": 2,
      "byteOffset": 214752,
      "componentType": 5126,
      "count": 612,
      "max": [
        15.83276081085205,
        16.00732421875,
        16.17669677734375
      ],
      "min": [
        -15.832807540893555,
        -15.658246994018555,
        -16.4880428314209
      ],
      "type": "VEC3"
    },
    {
      "bufferView": 2,
      "byteOffset": 222096,
      "componentType": 5126,
      "count": 612,
      "max": [
        1.0,
        1.0,
        1.0
      ],
      "min": [
        -1.0,
        -1.0,
        -1.0
      ],
      "type": "VEC3"
    },
    {
      "bufferView": 1,
      "byteOffset": 71584,
      "componentType": 5126,
      "count": 612,
      "max": [
        0.9960883259773254,
        0.9958351254463196
      ],
      "min": [
        0.003911649342626333,
        0.004164862912148237
      ],
      "type": "VEC2"
    },
    {
      "bufferView": 0,
      "byteOffset": 66900,
      "componentType": 5125,
      "count": 972,
      "type": "SCALAR"
    },
    {
      "bufferView": 2,
      "byteOffset": 229440,
      "componentType": 5126,
      "count": 24,
      "max": [
        1.0,
        1.0,
        1.0
      ],
      "min": [
        -1.0,
        -1.0,
        -1.0
      ],
      "type": "VEC3"
    },
    {
      "bufferView": 2,
      "byteOffset": 229728,
      "componentType": 5126,
      "count": 24,
      "max": [
        1.0,
        1.0,
        1.0
      ],
      "min": [
        -1.0,
        -1.0,
        -1.0
      ],
      "type": "VEC3"
    },
    {
      "bufferView": 1,
      "byteOffset": 76480,
      "componentType": 5126,
      "count": 24,
      "max": [
        0.9444444179534912,
        0.9444444179534912
      ],
      "min": [
        0.055555544793605804,
        0.055555544793605804
      ],
      "type": "VEC2"
    },
    {
      "bufferView": 0,
      "byteOffset": 70788,
      "componentType": 5125,
      "count": 36,
      "type": "SCALAR"
    },
    {
      "bufferView": 2,
      "byteOffset": 230016,
      "componentType": 5126,
      "count": 762,
      "max": [
        4.418920516967773,
        27.518339157104492,
        22.5435791015625
      ],
      "min": [
        -3.154585123062134,
        -27.726016998291016,
        -32.70073318481445
      ],
      "type": "VEC3"
    },
    {
      "bufferView": 2,
      "byteOffset": 239160,
      "componentType": 5126,
      "count": 762,
      "max": [
        1.0,
        1.0,
        1.0
      ],
      "min": [
        -1.0,
        -1.0,
        -1.0
      ],
      "type": "VEC3"
    },
    {
      "bufferView": 1,
      "byteOffset": 76672,
      "componentType": 5126,
      "count": 762,
      "max": [
        0.9972912669181824,
        0.9972984194755554
      ],
      "min": [
        0.0027087260968983173,
        0.0027015763334929943
      ],
      "type": "VEC2"
    },
    {
      "bufferView": 0,
      "byteOffset": 70932,
      "componentType": 5125,
      "count": 1260,
      "type": "SCALAR"
    },
    {
      "bufferView": 2,
      "byteOffset": 248304,
      "componentType": 5126,
      "count": 490,
      "max": [
        20.0,
        2.550363302230835,
        75.98786926269531
      ],
      "min": [
        -20.0,
        -2.7147390842437744,
        -79.45773315429688
      ],
      "type": "VEC3"
    },
    {
      "bufferView": 2,
      "byteOffset": 254184,
      "componentType": 5126,
      "count": 490,
      "max": [
        1.0,
        1.0,
        1.0
      ],
      "min": [
        -1.0,
        -1.0,
        -1.0
      ],
      "type": "VEC3"
    },
    {
      "bufferView": 1,
      "byteOffset": 82768,
      "componentType": 5126,
      "count": 490,
      "max": [
        0.9975672960281372,
        0.9850937128067017
      ],
      "min": [
        0.002432639244943857,
        0.0026529282331466675
      ],
      "type": "VEC2"
    },
    {
      "bufferView": 0,
      "byteOffset": 75972,
      "componentType": 5125,
      "count": 702,
      "type": "SCALAR"
    },
    {
      "bufferView": 2,
      "byteOffset": 260064,
      "componentType": 5126,
      "count": 728,
      "max": [
        1.0,
        2.492096424102783,
        1.0140994787216187
      ],
      "min": [
        -1.0,
        -1.0,
        -1.0140994787216187
      ],
      "type": "VEC3"
    },
    {
      "bufferView": 2,
      "byteOffset": 268800,
      "componentType": 5126,
      "count": 728,
      "max": [
        1.0,
        1.0,
        1.0
      ],
      "min": [
        -1.0,
        -1.0,
        -1.0
      ],
      "type": "VEC3"
    },
    {
      "bufferView": 1,
      "byteOffset": 86688,
      "componentType": 5126,
      "count": 728,
      "max": [
        0.9839558005332947,
        0.9840900301933289
      ],
      "min": [
        0.016044234856963158,
        0.015909984707832336
      ],
      "type": "VEC2"
    },
    {
      "bufferView": 0,
      "byteOffset": 78780,
      "componentType": 5125,
      "count": 1092,
      "type": "SCALAR"
    },
    {
      "bufferView": 2,
      "byteOffset": 277536,
      "componentType": 5126,
      "count": 337,
      "max": [
        22.852642059326172,
        1.4828832149505615,
        5.218297958374023
      ],
      "min": [
        -14.839398384094238,
        -1.3130528926849365,
        -45.2485466003418
      ],
      "type": "VEC3"
    },
    {
      "bufferView": 2,
      "byteOffset": 281580,
      "componentType": 5126,
      "count": 337,
      "max": [
        1.0,
        1.0,
        1.0
      ],
      "min": [
        -1.0,
        -1.0,
        -1.0
      ],
      "type": "VEC3"
    },
    {
      "bufferView": 1,
      "byteOffset": 92512,
      "componentType": 5126,
      "count": 337,
      "max": [
        0.995037317276001,
        0.9950572848320007
      ],
      "min": [
        0.0049627092666924,
        0.004942772444337606
      ],
      "type": "VEC2"
    },
    {
      "bufferView": 0,
      "byteOffset": 83148,
      "componentType": 5125,
      "count": 561,
      "type": "SCALAR"
    },
    {
      "bufferView": 2,
      "byteOffset": 285624,
      "componentType": 5126,
      "count": 236,
      "max": [
        1.0264217853546143,
        3.075117349624634,
        1.0
      ],
      "min": [
        -1.0264217853546143,
        -1.07511568069458,
        -0.9448875188827515
      ],
      "type": "VEC3"
    },
    {
      "bufferView": 2,
      "byteOffset": 288456,
      "componentType": 5126,
      "count": 236,
      "max": [
        0.7178417444229126,
        0.8539147973060608,
        0.9996498823165894
      ],
      "min": [
        -0.7178417444229126,
        -0.8539283275604248,
        -0.9996523857116699
      ],
      "type": "VEC3"
    },
    {
      "bufferView": 1,
      "byteOffset": 95208,
      "componentType": 5126,
      "count": 236,
      "max": [
        0.9759423136711121,
        0.9774775505065918
      ],
      "min": [
        0.024057675153017044,
        0.0225224532186985
      ],
      "type": "VEC2"
    },
    {
      "bufferView": 0,
      "byteOffset": 85392,
      "componentType": 5125,
      "count": 468,
      "type": "SCALAR"
    },
    {
      "bufferView": 2,
      "byteOffset": 291288,
      "componentType": 5126,
      "count": 872,
      "max": [
        1.948777675628662,
        57.35367202758789,
        2.755887985229492
      ],
      "min": [
        -6.712457180023193,
        -63.390899658203125,
        -27.91083526611328
      ],
      "type": "VEC3"
    },
    {
      "bufferView": 2,
      "byteOffset": 301752,
      "componentType": 5126,
      "count": 872,
      "max": [
        1.0,
        1.0,
        1.0
      ],
      "min": [
        -1.0,
        -1.0,
        -1.0
      ],
      "type": "VEC3"
    },
    {
      "bufferView": 1,
      "byteOffset": 97096,
      "componentType": 5126,
      "count": 872,
      "max": [
        0.9969115257263184,
        0.9967451691627502
      ],
      "min": [
        0.0030884956941008568,
        0.003254774957895279
      ],
      "type": "VEC2"
    },
    {
      "bufferView": 0,
      "byteOffset": 87264,
      "componentType": 5125,
      "count": 1284,
      "type": "SCALAR"
    },
    {
      "bufferView": 2,
      "byteOffset": 312216,
      "componentType": 5126,
      "count": 24,
      "max": [
        1.0,
        1.0,
        1.724128007888794
      ],
      "min": [
        -1.0,
        -1.0,
        -1.724128007888794
      ],
      "type": "VEC3"
    },
    {
      "bufferView": 2,
      "byteOffset": 312504,
      "componentType": 5126,
      "count": 24,
      "max": [
        1.0,
        1.0,
        1.0
      ],
      "min": [
        -1.0,
        -1.0,
        -1.0
      ],
      "type": "VEC3"
    },
    {
      "bufferView": 1,
      "byteOffset": 104072,
      "componentType": 5126,
      "count": 24,
      "max": [
        0.9444445371627808,
        0.9437982439994812
      ],
      "min": [
        0.055555544793605804,
        0.05620179325342178
      ],
      "type": "VEC2"
    },
    {
      "bufferView": 0,
      "byteOffset": 92400,
      "componentType": 5125,
      "count": 36,
      "type": "SCALAR"
    },
    {
      "bufferView": 2,
      "byteOffset": 312792,
      "componentType": 5126,
      "count": 216,
      "max": [
        14.337079048156738,
        1.811942219734192,
        2.322288751602173
      ],
      "min": [
        -14.25586223602295,
        -2.409903049468994,
        -2.3240206241607666
      ],
      "type": "VEC3"
    },
    {
      "bufferView": 2,
      "byteOffset": 315384,
      "componentType": 5126,
      "count": 216,
      "max": [
        1.0,
        1.0,
        1.0
      ],
      "min": [
        -1.0,
        -1.0,
        -1.0
      ],
      "type": "VEC3"
    },
    {
      "bufferView": 1,
      "byteOffset": 104264,
      "componentType": 5126,
      "count": 216,
      "max": [
        0.9867101311683655,
        0.9864487648010254
      ],
      "min": [
        0.01328993123024702,
        0.01355121098458767
      ],
      "type": "VEC2"
    },
    {
      "bufferView": 0,
      "byteOffset": 92544,
      "componentType": 5125,
      "count": 324,
      "type": "SCALAR"
    },
    {
      "bufferView": 2,
      "byteOffset": 317976,
      "componentType": 5126,
      "count": 629,
      "max": [
        26.075952529907227,
        26.963422775268555,
        35.695926666259766
      ],
      "min": [
        -26.820171356201172,
        -26.073270797729492,
        -26.389965057373047
      ],
      "type": "VEC3"
    },
    {
      "bufferView": 2,
      "byteOffset": 325524,
      "componentType": 5126,
      "count": 629,
      "max": [
        1.0,
        1.0,
        1.0
      ],
      "min": [
        -1.0,
        -1.0,
        -1.0
      ],
      "type": "VEC3"
    },
    {
      "bufferView": 1,
      "byteOffset": 105992,
      "componentType": 5126,
      "count": 629,
      "max": [
        0.9976020455360413,
        0.9974837899208069
      ],
      "min": [
        0.0023979563266038895,
        0.0025161809753626585
      ],
      "type": "VEC2"
    },
    {
      "bufferView": 0,
      "byteOffset": 93840,
      "componentType": 5125,
      "count": 1092,
      "type": "SCALAR"
    },
    {
      "bufferView": 2,
      "byteOffset": 333072,
      "componentType": 5126,
      "count": 227,
      "max": [
        1.0,
        15.47138786315918,
        1.0392789840698242
      ],
      "min": [
        -1.0,
        -1.0,
        -1.0
      ],
      "type": "VEC3"
    },
    {
      "bufferView": 2,
      "byteOffset": 335796,
      "componentType": 5126,
      "count": 227,
      "max": [
        1.0,
        1.0,
        1.0
      ],
      "min": [
        -1.0,
        -1.0,
        -1.0
      ],
      "type": "VEC3"
    },
    {
      "bufferView": 1,
      "byteOffset": 111024,
      "componentType": 5126,
      "count": 227,
      "max": [
        0.971990704536438,
        0.9726423621177673
      ],
      "min": [
        0.028009213507175446,
        0.02735769934952259
      ],
      "type": "VEC2"
    },
    {
      "bufferView": 0,
      "byteOffset": 98208,
      "componentType": 5125,
      "count": 420,
      "type": "SCALAR"
    },
    {
      "bufferView": 2,
      "byteOffset": 338520,
      "componentType": 5126,
      "count": 296,
      "max": [
        3.6070268154144287,
        14.101268768310547,
        73.3199234008789
      ],
      "min": [
        -3.8915133476257324,
        -16.998628616333008,
        -77.14989471435547
      ],
      "type": "VEC3"
    },
    {
      "bufferView": 2,
      "byteOffset": 342072,
      "componentType": 5126,
      "count": 296,
      "max": [
        1.0,
        1.0,
        1.0
      ],
      "min": [
        -1.0,
        -1.0,
        -1.0
      ],
      "type": "VEC3"
    },
    {
      "bufferView": 1,
      "byteOffset": 112840,
      "componentType": 5126,
      "count": 296,
      "max": [
        0.9970288276672363,
        0.9860318303108215
      ],
      "min": [
        0.0029711886309087276,
        0.003112317528575659
      ],
      "type": "VEC2"
    },
    {
      "bufferView": 0,
      "byteOffset": 99888,
      "componentType": 5125,
      "count": 444,
      "type": "SCALAR"
    },
    {
      "bufferView": 2,
      "byteOffset": 345624,
      "componentType": 5126,
      "count": 9140,
      "max": [
        1.2131047248840332,
        63.20576095581055,
        28.473480224609375
      ],
      "min": [
        -1.214235782623291,
        -70.1275863647461,
        -49.72288131713867
      ],
      "type": "VEC3"
    },
    {
      "bufferView": 2,
      "byteOffset": 455304,
      "componentType": 5126,
      "count": 9140,
      "max": [
        1.0,
        1.0,
        1.0
      ],
      "min": [
        -1.0,
        -1.0,
        -1.0
      ],
      "type": "VEC3"
    },
    {
      "bufferView": 1,
      "byteOffset": 115208,
      "componentType": 5126,
      "count": 9140,
      "max": [
        0.9979592561721802,
        0.9975708723068237
      ],
      "min": [
        0.0020407596603035927,
        0.0024291686713695526
      ],
      "type": "VEC2"
    },
    {
      "bufferView": 0,
      "byteOffset": 101664,
      "componentType": 5125,
      "count": 17508,
      "type": "SCALAR"
    },
    {
      "bufferView": 2,
      "byteOffset": 564984,
      "componentType": 5126,
      "count": 633,
      "max": [
        1.20059072971344,
        0.6627753376960754,
        1.1940245628356934
      ],
      "min": [
        -1.168861985206604,
        -1.9602817296981812,
        -1.005975365638733
      ],
      "type": "VEC3"
    },
    {
      "bufferView": 2,
      "byteOffset": 572580,
      "componentType": 5126,
      "count": 633,
      "max": [
        1.0,
        1.0,
        1.0
      ],
      "min": [
        -1.0,
        -1.0,
        -1.0
      ],
      "type": "VEC3"
    },
    {
      "bufferView": 1,
      "byteOffset": 188328,
      "componentType": 5126,
      "count": 633,
      "max": [
        0.9591467380523682,
        0.9600088000297546
      ],
      "min": [
        0.040853243321180344,
        0.03999117389321327
      ],
      "type": "VEC2"
    },
    {
      "bufferView": 0,
      "byteOffset": 171696,
      "componentType": 5125,
      "count": 1578,
      "type": "SCALAR"
    },
    {
      "bufferView": 2,
      "byteOffset": 580176,
      "componentType": 5126,
      "count": 1104,
      "max": [
        1.0389431715011597,
        1.05470871925354,
        43.49828338623047
      ],
      "min": [
        -1.0389431715011597,
        -1.0231776237487793,
        -44.72712707519531
      ],
      "type": "VEC3"
    },
    {
      "bufferView": 2,
      "byteOffset": 593424,
      "componentType": 5126,
      "count": 1104,
      "max": [
        1.0,
        1.0,
        1.0
      ],
      "min": [
        -1.0,
        -1.0,
        -1.0
      ],
      "type": "VEC3"
    },
    {
      "bufferView": 1,
      "byteOffset": 193392,
      "componentType": 5126,
      "count": 1104,
      "max": [
        0.988436222076416,
        0.9935557246208191
      ],
      "min": [
        0.011563779786229134,
        0.006444289814680815
      ],
      "type": "VEC2"
    },
    {
      "bufferView": 0,
      "byteOffset": 178008,
      "componentType": 5125,
      "count": 1932,
      "type": "SCALAR"
    },
    {
      "bufferView": 2,
      "byteOffset": 606672,
      "componentType": 5126,
      "count": 24,
      "max": [
        1.0,
        1.0,
        0.37268513441085815
      ],
      "min": [
        -1.0,
        -1.0,
        -0.37268516421318054
      ],
      "type": "VEC3"
    },
    {
      "bufferView": 2,
      "byteOffset": 606960,
      "componentType": 5126,
      "count": 24,
      "max": [
        1.0,
        1.0,
        1.0
      ],
      "min": [
        -1.0,
        -1.0,
        -1.0
      ],
      "type": "VEC3"
    },
    {
      "bufferView": 1,
      "byteOffset": 202224,
      "componentType": 5126,
      "count": 24,
      "max": [
        0.922967255115509,
        0.9166667461395264
      ],
      "min": [
        0.07703279703855515,
        0.083333320915699
      ],
      "type": "VEC2"
    },
    {
      "bufferView": 0,
      "byteOffset": 185736,
      "componentType": 5125,
      "count": 36,
      "type": "SCALAR"
    },
    {
      "bufferView": 2,
      "byteOffset": 607248,
      "componentType": 5126,
      "count": 479,
      "max": [
        8.526956558227539,
        10.605342864990234,
        80.05418395996094
      ],
      "min": [
        -8.635469436645508,
        -10.344432830810547,
        -80.03628540039063
      ],
      "type": "VEC3"
    },
    {
      "bufferView": 2,
      "byteOffset": 612996,
      "componentType": 5126,
      "count": 479,
      "max": [
        1.0,
        1.0,
        1.0
      ],
      "min": [
        -1.0,
        -1.0,
        -1.0
      ],
      "type": "VEC3"
    },
    {
      "bufferView": 1,
      "byteOffset": 202416,
      "componentType": 5126,
      "count": 479,
      "max": [
        0.9968916773796082,
        0.9968787431716919
      ],
      "min": [
        0.0031083126086741686,
        0.003121205372735858
      ],
      "type": "VEC2"
    },
    {
      "bufferView": 0,
      "byteOffset": 185880,
      "componentType": 5125,
      "count": 717,
      "type": "SCALAR"
    },
    {
      "bufferView": 2,
      "byteOffset": 618744,
      "componentType": 5126,
      "count": 213,
      "max": [
        1.0,
        15.47138786315918,
        1.0392789840698242
      ],
      "min": [
        -1.0,
        -1.0,
        -1.0
      ],
      "type": "VEC3"
    },
    {
      "bufferView": 2,
      "byteOffset": 621300,
      "componentType": 5126,
      "count": 213,
      "max": [
        1.0,
        1.0,
        1.0
      ],
      "min": [
        -1.0,
        -1.0,
        -1.0
      ],
      "type": "VEC3"
    },
    {
      "bufferView": 1,
      "byteOffset": 206248,
      "componentType": 5126,
      "count": 213,
      "max": [
        0.9727072715759277,
        0.9726423621177673
      ],
      "min": [
        0.027292747050523758,
        0.02735769934952259
      ],
      "type": "VEC2"
    },
    {
      "bufferView": 0,
      "byteOffset": 188748,
      "componentType": 5125,
      "count": 420,
      "type": "SCALAR"
    },
    {
      "bufferView": 2,
      "byteOffset": 623856,
      "componentType": 5126,
      "count": 598,
      "max": [
        2.9807803630828857,
        0.9748744964599609,
        3.086392402648926
      ],
      "min": [
        -2.676074266433716,
        -6.903914451599121,
        -3.7420339584350586
      ],
      "type": "VEC3"
    },
    {
      "bufferView": 2,
      "byteOffset": 631032,
      "componentType": 5126,
      "count": 598,
      "max": [
        0.8982085585594177,
        1.0,
        0.9763023853302002
      ],
      "min": [
        -0.8982085585594177,
        -1.0,
        -0.9763023853302002
      ],
      "type": "VEC3"
    },
    {
      "bufferView": 1,
      "byteOffset": 207952,
      "componentType": 5126,
      "count": 598,
      "max": [
        0.9776103496551514,
        0.9769429564476013
      ],
      "min": [
        0.022389642894268036,
        0.023057078942656517
      ],
      "type": "VEC2"
    },
    {
      "bufferView": 0,
      "byteOffset": 190428,
      "componentType": 5125,
      "count": 1908,
      "type": "SCALAR"
    },
    {
      "bufferView": 2,
      "byteOffset": 638208,
      "componentType": 5126,
      "count": 236,
      "max": [
        1.0,
        3.0,
        1.0
      ],
      "min": [
        -1.0,
        -1.0,
        -1.0
      ],
      "type": "VEC3"
    },
    {
      "bufferView": 2,
      "byteOffset": 641040,
      "componentType": 5126,
      "count": 236,
      "max": [
        0.7126818299293518,
        0.8434566259384155,
        0.9996434450149536
      ],
      "min": [
        -0.7126818299293518,
        -0.8434566259384155,
        -0.9996434450149536
      ],
      "type": "VEC3"
    },
    {
      "bufferView": 1,
      "byteOffset": 212736,
      "componentType": 5126,
      "count": 236,
      "max": [
        0.9761898517608643,
        0.975001335144043
      ],
      "min": [
        0.023810163140296936,
        0.024998655542731285
      ],
      "type": "VEC2"
    },
    {
      "bufferView": 0,
      "byteOffset": 198060,
      "componentType": 5125,
      "count": 468,
      "type": "SCALAR"
    }
  ],
  "asset": {
    "extras": {
      "author": "lexferreira89 (https://sketchfab.com/lexferreira89)",
      "license": "CC-BY-4.0 (http://creativecommons.org/licenses/by/4.0/)",
      "source": "https://sketchfab.com/3d-models/modular-slums-e2b6f532e1fe4f7280890971d78183f4",
      "title": "Modular Slums"
    },
    "generator": "Sketchfab-12.67.0",
    "version": "2.0"
  },
  "bufferViews": [
    {
      "buffer": 0,
      "byteLength": 199932,
      "name": "floatBufferViews",
      "target": 34963
    },
    {
      "buffer": 0,
      "byteLength": 214624,
      "byteOffset": 199932,
      "byteStride": 8,
      "name": "floatBufferViews",
      "target": 34962
    },
    {
      "buffer": 0,
      "byteLength": 643872,
      "byteOffset": 414556,
      "byteStride": 12,
      "name": "floatBufferViews",
      "target": 34962
    }
  ],
  "buffers": [
    {
      "byteLength": 1058428,
      "uri": "scene.bin"
    }
  ],
  "images": [
    {
      "uri": "textures/material_baseColor.jpeg"
    },
    {
      "uri": "textures/material_1_baseColor.jpeg"
    },
    {
      "uri": "textures/material_2_baseColor.jpeg"
    },
    {
      "uri": "textures/material_3_baseColor.jpeg"
    },
    {
      "uri": "textures/material_4_baseColor.jpeg"
    },
    {
      "uri": "textures/material_5_baseColor.jpeg"
    },
    {
      "uri": "textures/material_6_baseColor.jpeg"
    },
    {
      "uri": "textures/material_7_baseColor.jpeg"
    },
    {
      "uri": "textures/material_8_baseColor.jpeg"
    },
    {
      "uri": "textures/material_9_baseColor.jpeg"
    },
    {
      "uri": "textures/material_10_baseColor.jpeg"
    },
    {
      "uri": "textures/material_11_baseColor.jpeg"
    },
    {
      "uri": "textures/material_12_baseColor.jpeg"
    },
    {
      "uri": "textures/material_13_baseColor.jpeg"
    },
    {
      "uri": "textures/material_14_baseColor.jpeg"
    },
    {
      "uri": "textures/material_15_baseColor.jpeg"
    },
    {
      "uri": "textures/material_16_baseColor.jpeg"
    },
    {
      "uri": "textures/material_17_baseColor.jpeg"
    },
    {
      "uri": "textures/material_18_baseColor.jpeg"
    },
    {
      "uri": "textures/material_19_baseColor.jpeg"
    },
    {
      "uri": "textures/material_20_baseColor.jpeg"
    },
    {
      "uri": "textures/material_21_baseColor.jpeg"
    },
    {
      "uri": "textures/material_22_baseColor.jpeg"
    },
    {
      "uri": "textures/material_23_baseColor.jpeg"
    },
    {
      "uri": "textures/material_24_baseColor.jpeg"
    },
    {
      "uri": "textures/material_25_baseColor.jpeg"
    },
    {
      "uri": "textures/material_26_baseColor.jpeg"
    },
    {
      "uri": "textures/material_27_baseColor.jpeg"
    },
    {
      "uri": "textures/material_28_baseColor.jpeg"
    },
    {
      "uri": "textures/material_29_baseColor.jpeg"
    },
    {
      "uri": "textures/material_30_baseColor.jpeg"
    },
    {
      "uri": "textures/material_30_metallicRoughness.png"
    },
    {
      "uri": "textures/material_31_baseColor.jpeg"
    },
    {
      "uri": "textures/material_31_metallicRoughness.png"
    },
    {
      "uri": "textures/material_32_baseColor.jpeg"
    },
    {
      "uri": "textures/material_32_metallicRoughness.png"
    },
    {
      "uri": "textures/material_33_baseColor.jpeg"
    },
    {
      "uri": "textures/material_33_metallicRoughness.png"
    },
    {
      "uri": "textures/material_34_baseColor.jpeg"
    },
    {
      "uri": "textures/material_34_metallicRoughness.png"
    },
    {
      "uri": "textures/material_35_baseColor.jpeg"
    },
    {
      "uri": "textures/material_35_metallicRoughness.png"
    }
  ],
  "materials": [
    {
      "doubleSided": true,
      "name": "material",
      "pbrMetallicRoughness": {
        "baseColorTexture": {
          "index": 0
        },
        "metallicFactor": 0.0,
        "roughnessFactor": 0.5
      }
    },
    {
      "doubleSided": true,
      "name": "material_1",
      "pbrMetallicRoughness": {
        "baseColorTexture": {
          "index": 1
        },
        "metallicFactor": 0.0,
        "roughnessFactor": 0.5
      }
    },
    {
      "doubleSided": true,
      "name": "material_2",
      "pbrMetallicRoughness": {
        "baseColorTexture": {
          "index": 2
        },
        "metallicFactor": 0.0,
        "roughnessFactor": 0.5
      }
    },
    {
      "doubleSided": true,
      "name": "material_3",
      "pbrMetallicRoughness": {
        "baseColorTexture": {
          "index": 3
        },
        "metallicFactor": 0.0,
        "roughnessFactor": 0.5
      }
    },
    {
      "doubleSided": true,
      "name": "material_4",
      "pbrMetallicRoughness": {
        "baseColorTexture": {
          "index": 4
        },
        "metallicFactor": 0.0,
        "roughnessFactor": 0.5
      }
    },
    {
      "doubleSided": true,
      "name": "material_5",
      "pbrMetallicRoughness": {
        "baseColorTexture": {
          "index": 5
        },
        "metallicFactor": 0.0,
        "roughnessFactor": 0.5
      }
    },
    {
      "doubleSided": true,
      "name": "material_6",
      "pbrMetallicRoughness": {
        "baseColorTexture": {
          "index": 6
        },
        "metallicFactor": 0.0,
        "roughnessFactor": 0.5
      }
    },
    {
      "doubleSided": true,
      "name": "material_7",
      "pbrMetallicRoughness": {
        "baseColorTexture": {
          "index": 7
        },
        "metallicFactor": 0.0,
        "roughnessFactor": 0.5
      }
    },
    {
      "doubleSided": true,
      "name": "material_8",
      "pbrMetallicRoughness": {
        "baseColorTexture": {
          "index": 8
        },
        "metallicFactor": 0.0,
        "roughnessFactor": 0.5
      }
    },
    {
      "doubleSided": true,
      "name": "material_9",
      "pbrMetallicRoughness": {
        "baseColorTexture": {
          "index": 9
        },
        "metallicFactor": 0.0,
        "roughnessFactor": 0.5
      }
    },
    {
      "doubleSided": true,
      "name": "material_10",
      "pbrMetallicRoughness": {
        "baseColorTexture": {
          "index": 10
        },
        "metallicFactor": 0.0,
        "roughnessFactor": 0.5
      }
    },
    {
      "doubleSided": true,
      "name": "material_11",
      "pbrMetallicRoughness": {
        "baseColorTexture": {
          "index": 11
        },
        "metallicFactor": 0.0,
        "roughnessFactor": 0.5
      }
    },
    {
      "doubleSided": true,
      "name": "material_12",
      "pbrMetallicRoughness": {
        "baseColorTexture": {
          "index": 12
        },
        "metallicFactor": 0.0,
        "roughnessFactor": 0.5
      }
    },
    {
      "doubleSided": true,
      "name": "material_13",
      "pbrMetallicRoughness": {
        "baseColorTexture": {
          "index": 13
        },
        "metallicFactor": 0.0,
        "roughnessFactor": 0.5
      }
    },
    {
      "doubleSided": true,
      "name": "material_14",
      "pbrMetallicRoughness": {
        "baseColorTexture": {
          "index": 14
        },
        "metallicFactor": 0.0,
        "roughnessFactor": 0.5
      }
    },
    {
      "doubleSided": true,
      "name": "material_15",
      "pbrMetallicRoughness": {
        "baseColorTexture": {
          "index": 15
        },
        "metallicFactor": 0.0,
        "roughnessFactor": 0.5
      }
    },
    {
      "doubleSided": true,
      "name": "material_16",
      "pbrMetallicRoughness": {
        "baseColorTexture": {
          "index": 16
        },
        "metallicFactor": 0.0,
        "roughnessFactor": 0.5
      }
    },
    {
      "doubleSided": true,
      "name": "material_17",
      "pbrMetallicRoughness": {
        "baseColorTexture": {
          "index": 17
        },
        "metallicFactor": 0.0,
        "roughnessFactor": 0.5
      }
    },
    {
      "doubleSided": true,
      "name": "material_18",
      "pbrMetallicRoughness": {
        "baseColorTexture": {
          "index": 18
        },
        "metallicFactor": 0.0,
        "roughnessFactor": 0.5
      }
    },
    {
      "doubleSided": true,
      "name": "material_19",
      "pbrMetallicRoughness": {
        "baseColorTexture": {
          "index": 19
        },
        "metallicFactor": 0.0,
        "roughnessFactor": 0.5
      }
    },
    {
      "doubleSided": true,
      "name": "material_20",
      "pbrMetallicRoughness": {
        "baseColorTexture": {
          "index": 20
        },
        "metallicFactor": 0.0,
        "roughnessFactor": 0.5
      }
    },
    {
      "doubleSided": true,
      "name": "material_21",
      "pbrMetallicRoughness": {
        "baseColorTexture": {
          "index": 21
        },
        "metallicFactor": 0.0,
        "roughnessFactor": 0.5
      }
    },
    {
      "doubleSided": true,
      "name": "material_22",
      "pbrMetallicRoughness": {
        "baseColorTexture": {
          "index": 22
        },
        "metallicFactor": 0.0,
        "roughnessFactor": 0.5
      }
    },
    {
      "doubleSided": true,
      "name": "material_23",
      "pbrMetallicRoughness": {
        "baseColorTexture": {
          "index": 23
        },
        "metallicFactor": 0.0,
        "roughnessFactor": 0.5
      }
    },
    {
      "doubleSided": true,
      "name": "material_24",
      "pbrMetallicRoughness": {
        "baseColorTexture": {
          "index": 24
        },
        "metallicFactor": 0.0,
        "roughnessFactor": 0.5
      }
    },
    {
      "doubleSided": true,
      "name": "material_25",
      "pbrMetallicRoughness": {
        "baseColorTexture": {
          "index": 25
        },
        "metallicFactor": 0.0,
        "roughnessFactor": 0.5
      }
    },
    {
      "doubleSided": true,
      "name": "material_26",
      "pbrMetallicRoughness": {
        "baseColorTexture": {
          "index": 26
        },
        "metallicFactor": 0.0,
        "roughnessFactor": 0.5
      }
    },
    {
      "doubleSided": true,
      "name": "material_27",
      "pbrMetallicRoughness": {
        "baseColorTexture": {
          "index": 27
        },
        "metallicFactor": 0.0,
        "roughnessFactor": 0.5
      }
    },
    {
      "doubleSided": true,
      "name": "material_28",
      "pbrMetallicRoughness": {
        "baseColorTexture": {
          "index": 28
        },
        "metallicFactor": 0.0,
        "roughnessFactor": 0.5
      }
    },
    {
      "doubleSided": true,
      "name": "material_29",
      "pbrMetallicRoughness": {
        "baseColorTexture": {
          "index": 29
        },
        "metallicFactor": 0.0,
        "roughnessFactor": 0.5
      }
    },
    {
      "doubleSided": true,
      "name": "material_30",
      "occlusionTexture": {
        "index": 31
      },
      "pbrMetallicRoughness": {
        "baseColorTexture": {
          "index": 30
        },
        "metallicFactor": 0.0,
        "metallicRoughnessTexture": {
          "index": 31
        },
        "roughnessFactor": 0.5
      }
    },
    {
      "doubleSided": true,
      "name": "material_31",
      "occlusionTexture": {
        "index": 33
      },
      "pbrMetallicRoughness": {
        "baseColorTexture": {
          "index": 32
        },
        "metallicFactor": 0.0,
        "metallicRoughnessTexture": {
          "index": 33
        },
        "roughnessFactor": 0.5
      }
    },
    {
      "doubleSided": true,
      "name": "material_32",
      "occlusionTexture": {
        "index": 35
      },
      "pbrMetallicRoughness": {
        "baseColorTexture": {
          "index": 34
        },
        "metallicFactor": 0.0,
        "metallicRoughnessTexture": {
          "index": 35
        },
        "roughnessFactor": 0.5
      }
    },
    {
      "doubleSided": true,
      "name": "material_33",
      "occlusionTexture": {
        "index": 37
      },
      "pbrMetallicRoughness": {
        "baseColorTexture": {
          "index": 36
        },
        "metallicFactor": 0.0,
        "metallicRoughnessTexture": {
          "index": 37
        },
        "roughnessFactor": 0.5
      }
    },
    {
      "doubleSided": true,
      "name": "material_34",
      "occlusionTexture": {
        "index": 39
      },
      "pbrMetallicRoughness": {
        "baseColorTexture": {
          "index": 38
        },
        "metallicFactor": 0.0,
        "metallicRoughnessTexture": {
          "index": 39
        },
        "roughnessFactor": 0.5
      }
    },
    {
      "doubleSided": true,
      "name": "material_35",
      "occlusionTexture": {
        "index": 41
      },
      "pbrMetallicRoughness": {
        "baseColorTexture": {
          "index": 40
        },
        "metallicFactor": 0.0,
        "metallicRoughnessTexture": {
          "index": 41
        },
        "roughnessFactor": 0.5
      }
    }
  ],
  "meshes": [
    {
      "name": "Object_0",
      "primitives": [
        {
          "attributes": {
            "NORMAL": 1,
            "POSITION": 0,
            "TEXCOORD_0": 2
          },
          "indices": 3,
          "material": 0,
          "mode": 4
        }
      ]
    },
    {
      "name": "Object_1",
      "primitives": [
        {
          "attributes": {
            "NORMAL": 5,
            "POSITION": 4,
            "TEXCOORD_0": 6
          },
          "indices": 7,
          "material": 1,
          "mode": 4
        }
      ]
    },
    {
      "name": "Object_2",
      "primitives": [
        {
          "attributes": {
            "NORMAL": 9,
            "POSITION": 8,
            "TEXCOORD_0": 10
          },
          "indices": 11,
          "material": 2,
          "mode": 4
        }
      ]
    },
    {
      "name": "Object_3",
      "primitives": [
        {
          "attributes": {
            "NORMAL": 13,
            "POSITION": 12,
            "TEXCOORD_0": 14
          },
          "indices": 15,
          "material": 3,
          "mode": 4
        }
      ]
    },
    {
      "name": "Object_4",
      "primitives": [
        {
          "attributes": {
            "NORMAL": 17,
            "POSITION": 16,
            "TEXCOORD_0": 18
          },
          "indices": 19,
          "material": 4,
          "mode": 4
        }
      ]
    },
    {
      "name": "Object_5",
      "primitives": [
        {
          "attributes": {
            "NORMAL": 21,
            "POSITION": 20,
            "TEXCOORD_0": 22
          },
          "indices": 23,
          "material": 5,
          "mode": 4
        }
      ]
    },
    {
      "name": "Object_6",
      "primitives": [
        {
          "attributes": {
            "NORMAL": 25,
            "POSITION": 24,
            "TEXCOORD_0": 26
          },
          "indices": 27,
          "material": 6,
          "mode": 4
        }
      ]
    },
    {
      "name": "Object_7",
      "primitives": [
        {
          "attributes": {
            "NORMAL": 29,
            "POSITION": 28,
            "TEXCOORD_0": 30
          },
          "indices": 31,
          "material": 7,
          "mode": 4
        }
      ]
    },
    {
      "name": "Object_8",
      "primitives": [
        {
          "attributes": {
            "NORMAL": 33,
            "POSITION": 32,
            "TEXCOORD_0": 34
          },
          "indices": 35,
          "material": 8,
          "mode": 4
        }
      ]
    },
    {
      "name": "Object_9",
      "primitives": [
        {
          "attributes": {
            "NORMAL": 37,
            "POSITION": 36,
            "TEXCOORD_0": 38
          },
          "indices": 39,
          "material": 9,
          "mode": 4
        }
      ]
    },
    {
      "name": "Object_10",
      "primitives": [
        {
          "attributes": {
            "NORMAL": 41,
            "POSITION": 40,
            "TEXCOORD_0": 42
          },
          "indices": 43,
          "material": 10,
          "mode": 4
        }
      ]
    },
    {
      "name": "Object_11",
      "primitives": [
        {
          "attributes": {
            "NORMAL": 45,
            "POSITION": 44,
            "TEXCOORD_0": 46
          },
          "indices": 47,
          "material": 11,
          "mode": 4
        }
      ]
    },
    {
      "name": "Object_12",
      "primitives": [
        {
          "attributes": {
            "NORMAL": 49,
            "POSITION": 48,
            "TEXCOORD_0": 50
          },
          "indices": 51,
          "material": 12,
          "mode": 4
        }
      ]
    },
    {
      "name": "Object_13",
      "primitives": [
        {
          "attributes": {
            "NORMAL": 53,
            "POSITION": 52,
            "TEXCOORD_0": 54
          },
          "indices": 55,
          "material": 13,
          "mode": 4
        }
      ]
    },
    {
      "name": "Object_14",
      "primitives": [
        {
          "attributes": {
            "NORMAL": 57,
            "POSITION": 56,
            "TEXCOORD_0": 58
          },
          "indices": 59,
          "material": 14,
          "mode": 4
        }
      ]
    },
    {
      "name": "Object_15",
      "primitives": [
        {
          "attributes": {
            "NORMAL": 61,
            "POSITION": 60,
            "TEXCOORD_0": 62
          },
          "indices": 63,
          "material": 15,
          "mode": 4
        }
      ]
    },
    {
      "name": "Object_16",
      "primitives": [
        {
          "attributes": {
            "NORMAL": 65,
            "POSITION": 64,
            "TEXCOORD_0": 66
          },
          "indices": 67,
          "material": 16,
          "mode": 4
        }
      ]
    },
    {
      "name": "Object_17",
      "primitives": [
        {
          "attributes": {
            "NORMAL": 69,
            "POSITION": 68,
            "TEXCOORD_0": 70
          },
          "indices": 71,
          "material": 17,
          "mode": 4
        }
      ]
    },
    {
      "name": "Object_18",
      "primitives": [
        {
          "attributes": {
            "NORMAL": 73,
            "POSITION": 72,
            "TEXCOORD_0": 74
          },
          "indices": 75,
          "material": 18,
          "mode": 4
        }
      ]
    },
    {
      "name": "Object_19",
      "primitives": [
        {
          "attributes": {
            "NORMAL": 77,
            "POSITION": 76,
            "TEXCOORD_0": 78
          },
          "indices": 79,
          "material": 19,
          "mode": 4
        }
      ]
    },
    {
      "name": "Object_20",
      "primitives": [
        {
          "attributes": {
            "NORMAL": 81,
            "POSITION": 80,
            "TEXCOORD_0": 82
          },
          "indices": 83,
          "material": 20,
          "mode": 4
        }
      ]
    },
    {
      "name": "Object_21",
      "primitives": [
        {
          "attributes": {
            "NORMAL": 85,
            "POSITION": 84,
            "TEXCOORD_0": 86
          },
          "indices": 87,
          "material": 21,
          "mode": 4
        }
      ]
    },
    {
      "name": "Object_22",
      "primitives": [
        {
          "attributes": {
            "NORMAL": 89,
            "POSITION": 88,
            "TEXCOORD_0": 90
          },
          "indices": 91,
          "material": 22,
          "mode": 4
        }
      ]
    },
    {
      "name": "Object_23",
      "primitives": [
        {
          "attributes": {
            "NORMAL": 93,
            "POSITION": 92,
            "TEXCOORD_0": 94
          },
          "indices": 95,
          "material": 23,
          "mode": 4
        }
      ]
    },
    {
      "name": "Object_24",
      "primitives": [
        {
          "attributes": {
            "NORMAL": 97,
            "POSITION": 96,
            "TEXCOORD_0": 98
          },
          "indices": 99,
          "material": 24,
          "mode": 4
        }
      ]
    },
    {
      "name": "Object_25",
      "primitives": [
        {
          "attributes": {
            "NORMAL": 101,
            "POSITION": 100,
            "TEXCOORD_0": 102
          },
          "indices": 103,
          "material": 25,
          "mode": 4
        }
      ]
    },
    {
      "name": "Object_26",
      "primitives": [
        {
          "attributes": {
            "NORMAL": 105,
            "POSITION": 104,
            "TEXCOORD_0": 106
          },
          "indices": 107,
          "material": 26,
          "mode": 4
        }
      ]
    },
    {
      "name": "Object_27",
      "primitives": [
        {
          "attributes": {
            "NORMAL": 109,
            "POSITION": 108,
            "TEXCOORD_0": 110
          },
          "indices": 111,
          "material": 27,
          "mode": 4
        }
      ]
    },
    {
      "name": "Object_28",
      "primitives": [
        {
          "attributes": {
            "NORMAL": 113,
            "POSITION": 112,
            "TEXCOORD_0": 114
          },
          "indices": 115,
          "material": 28,
          "mode": 4
        }
      ]
    },
    {
      "name": "Object_29",
      "primitives": [
        {
          "attributes": {
            "NORMAL": 117,
            "POSITION": 116,
            "TEXCOORD_0": 118
          },
          "indices": 119,
          "material": 29,
          "mode": 4
        }
      ]
    },
    {
      "name": "Object_30",
      "primitives": [
        {
          "attributes": {
            "NORMAL": 121,
            "POSITION": 120,
            "TEXCOORD_0": 122
          },
          "indices": 123,
          "material": 30,
          "mode": 4
        }
      ]
    },
    {
      "name": "Object_31",
      "primitives": [
        {
          "attributes": {
            "NORMAL": 125,
            "POSITION": 124,
            "TEXCOORD_0": 126
          },
          "indices": 127,
          "material": 31,
          "mode": 4
        }
      ]
    },
    {
      "name": "Object_32",
      "primitives": [
        {
          "attributes": {
            "NORMAL": 129,
            "POSITION": 128,
            "TEXCOORD_0": 130
          },
          "indices": 131,
          "material": 32,
          "mode": 4
        }
      ]
    },
    {
      "name": "Object_33",
      "primitives": [
        {
          "attributes": {
            "NORMAL": 133,
            "POSITION": 132,
            "TEXCOORD_0": 134
          },
          "indices": 135,
          "material": 33,
          "mode": 4
        }
      ]
    },
    {
      "name": "Object_34",
      "primitives": [
        {
          "attributes": {
            "NORMAL": 137,
            "POSITION": 136,
            "TEXCOORD_0": 138
          },
          "indices": 139,
          "material": 34,
          "mode": 4
        }
      ]
    },
    {
      "name": "Object_35",
      "primitives": [
        {
          "attributes": {
            "NORMAL": 141,
            "POSITION": 140,
            "TEXCOORD_0": 142
          },
          "indices": 143,
          "material": 35,
          "mode": 4
        }
      ]
    }
  ],
  "nodes": [
    {
      "children": [
        1
      ],
      "matrix": [
        1.0,
        0.0,
        0.0,
        0.0,
        0.0,
        2.220446049250313e-16,
        -1.0,
        0.0,
        0.0,
        1.0,
        2.220446049250313e-16,
        0.0,
        0.0,
        0.0,
        0.0,
        1.0
      ],
      "name": "Sketchfab_model"
    },
    {
      "children": [
        2
      ],
      "name": "root"
    },
    {
      "children": [
        3,
        5,
        7,
        9,
        11,
        13,
        15,
        17,
        19,
        21,
        23,
        25,
        27,
        29,
        31,
        33,
        35,
        37,
        39,
        41,
        43,
        45,
        47,
        49,
        51,
        53,
        55,
        57,
        59,
        61,
        63,
        65,
        67,
        69,
        71,
        73
      ],
      "matrix": [
        1.0,
        0.0,
        0.0,
        0.0,
        0.0,
        2.220446049250313e-16,
        1.0,
        0.0,
        0.0,
        -1.0,
        2.220446049250313e-16,
        0.0,
        0.0,
        0.0,
        0.0,
        1.0
      ],
      "name": "GLTF_SceneRootNode"
    },
    {
      "children": [
        4
      ],
      "matrix": [
        1.0,
        0.0,
        0.0,
        0.0,
        0.0,
        1.0,
        0.0,
        0.0,
        0.0,
        0.0,
        3.0,
        0.0,
        7.511398792266846,
        0.031177615746855736,
        2.104384422302246,
        1.0
      ],
      "name": "G4_0"
    },
    {
      "mesh": 0,
      "name": "Object_4"
    },
    {
      "children": [
        6
      ],
      "matrix": [
        1.100000023841858,
        0.0,
        0.0,
        0.0,
        0.0,
        0.02500000037252903,
        0.0,
        0.0,
        0.0,
        0.0,
        2.0999999046325684,
        0.0,
        7.5,
        1.0,
        1.0,
        1.0
      ],
      "name": "G3_1"
    },
    {
      "mesh": 1,
      "name": "Object_6"
    },
    {
      "children": [
        8
      ],
      "matrix": [
        0.5171911353812384,
        0.039517880755264696,
        0.0,
        0.0,
        -0.0072646929907321176,
        0.09507682963419838,
        0.0,
        0.0,
        0.0,
        0.0,
        0.016614632681012154,
        0.0,
        7.500153541564941,
        1.9964613914489746,
        -1.9825568199157715,
        1.0
      ],
      "name": "G2_2"
    },
    {
      "mesh": 2,
      "name": "Object_8"
    },
    {
      "children": [
        10
      ],
      "matrix": [
        1.0,
        0.0,
        0.0,
        0.0,
        0.0,
        1.0,
        0.0,
        0.0,
        0.0,
        0.0,
        1.0,
        0.0,
        7.5,
        4.076792240142822,
        -1.9594329595565796,
        1.0
      ],
      "name": "G1_3"
    },
    {
      "mesh": 3,
      "name": "Object_10"
    },
    {
      "children": [
        12
      ],
      "matrix": [
        1.0,
        0.0,
        0.0,
        0.0,
        0.0,
        1.0,
        0.0,
        0.0,
        0.0,
        0.0,
        3.0,
        0.0,
        -7.510385513305664,
        -0.009235871024429798,
        2.077110767364502,
        1.0
      ],
      "name": "F6_4"
    },
    {
      "mesh": 4,
      "name": "Object_12"
    },
    {
      "children": [
        14
      ],
      "matrix": [
        1.0,
        0.0,
        0.0,
        0.0,
        0.0,
        1.0,
        0.0,
        0.0,
        0.0,
        0.0,
        3.0,
        0.0,
        -7.496592998504639,
        1.961890697479248,
        1.1732914447784424,
        1.0
      ],
      "name": "F5_5"
    },
    {
      "mesh": 5,
      "name": "Object_14"
    },
    {
      "children": [
        16
      ],
      "matrix": [
        1.0410879850387573,
        0.0,
        0.0,
        0.0,
        0.0,
        0.020878180598644863,
        0.0012801711056804376,
        0.0,
        0.0,
        -0.05973449900849613,
        0.9742038800399808,
        0.0,
        -7.5,
        3.0405726432800293,
        2.102376699447632,
        1.0
      ],
      "name": "F4_6"
    },
    {
      "mesh": 6,
      "name": "Object_16"
    },
    {
      "children": [
        18
      ],
      "matrix": [
        7.586433165039939e-08,
        0.0,
        -0.15000000596044527,
        0.0,
        0.0,
        0.15000000596046448,
        0.0,
        0.0,
        1.1499999761579949,
        0.0,
        5.816265074829903e-07,
        0.0,
        -7.5,
        3.0,
        0.0,
        1.0
      ],
      "name": "F3_7"
    },
    {
      "mesh": 7,
      "name": "Object_18"
    },
    {
      "children": [
        20
      ],
      "matrix": [
        0.32472342252731323,
        0.0,
        0.0,
        0.0,
        0.0,
        0.08282388746738434,
        0.0,
        0.0,
        0.0,
        0.0,
        0.018251659348607063,
        0.0,
        -7.499863624572754,
        4.00892972946167,
        0.0357632040977478,
        1.0
      ],
      "name": "F2_8"
    },
    {
      "mesh": 8,
      "name": "Object_20"
    },
    {
      "children": [
        22
      ],
      "matrix": [
        1.0,
        0.0,
        0.0,
        0.0,
        0.0,
        0.02499404921381834,
        0.0005453708751144967,
        0.0,
        0.0,
        -0.046356527147796554,
        2.1244943098042874,
        0.0,
        -7.5,
        5.02154541015625,
        -1.0,
        1.0
      ],
      "name": "F1_9"
    },
    {
      "mesh": 9,
      "name": "Object_22"
    },
    {
      "children": [
        24
      ],
      "matrix": [
        1.0,
        0.0,
        0.0,
        0.0,
        0.0,
        1.0,
        0.0,
        0.0,
        0.0,
        0.0,
        2.0,
        0.0,
        5.006911754608154,
        -0.0050905197858810425,
        0.025747179985046387,
        1.0
      ],
      "name": "E5_10"
    },
    {
      "mesh": 10,
      "name": "Object_24"
    },
    {
      "children": [
        26
      ],
      "matrix": [
        7.586433165039939e-08,
        0.0,
        -0.15000000596044527,
        0.0,
        0.0,
        0.15000000596046448,
        0.0,
        0.0,
        1.1499999761579949,
        0.0,
        5.816265074829903e-07,
        0.0,
        5.0,
        1.0,
        -1.000000238418579,
        1.0
      ],
      "name": "E4_11"
    },
    {
      "mesh": 11,
      "name": "Object_26"
    },
    {
      "children": [
        28
      ],
      "matrix": [
        1.0,
        0.0,
        0.0,
        0.0,
        0.0,
        1.0,
        0.0,
        0.0,
        0.0,
        0.0,
        2.0,
        0.0,
        4.99669885635376,
        2.0016119480133057,
        0.0002052783966064453,
        1.0
      ],
      "name": "E3_12"
    },
    {
      "mesh": 12,
      "name": "Object_28"
    },
    {
      "children": [
        30
      ],
      "matrix": [
        1.100000023841858,
        0.0,
        0.0,
        0.0,
        0.0,
        0.02500000037252903,
        0.0,
        0.0,
        0.0,
        0.0,
        2.0999999046325684,
        0.0,
        5.0,
        3.0,
        -1.0,
        1.0
      ],
      "name": "E2_13"
    },
    {
      "mesh": 13,
      "name": "Object_30"
    },
    {
      "children": [
        32
      ],
      "matrix": [
        1.0,
        0.0,
        0.0,
        0.0,
        0.0,
        1.0,
        0.0,
        0.0,
        0.0,
        0.0,
        1.0,
        0.0,
        5.0,
        4.0,
        -2.0,
        1.0
      ],
      "name": "E1_14"
    },
    {
      "mesh": 14,
      "name": "Object_32"
    },
    {
      "children": [
        34
      ],
      "matrix": [
        0.06316008418798447,
        0.0,
        0.0,
        0.0,
        0.0,
        0.06316008418798447,
        0.0,
        0.0,
        0.0,
        0.0,
        0.06316008418798447,
        0.0,
        -4.999998569488525,
        -0.011023879051208496,
        2.0413858890533447,
        1.0
      ],
      "name": "D5_15"
    },
    {
      "mesh": 15,
      "name": "Object_34"
    },
    {
      "children": [
        36
      ],
      "matrix": [
        1.100000023841858,
        0.0,
        0.0,
        0.0,
        0.0,
        0.02500000037252903,
        0.0,
        0.0,
        0.0,
        0.0,
        3.0999999046325684,
        0.0,
        -5.0,
        1.0,
        0.0,
        1.0
      ],
      "name": "D4_16"
    },
    {
      "mesh": 16,
      "name": "Object_36"
    },
    {
      "children": [
        38
      ],
      "matrix": [
        1.3356101009951104e-07,
        -0.26407867670055823,
        0.0,
        0.0,
        0.03620282188057436,
        1.831001851128244e-08,
        0.0,
        0.0,
        0.0,
        0.0,
        0.036202821880578995,
        0.0,
        -4.996240615844727,
        2.1669418811798096,
        2.183858871459961,
        1.0
      ],
      "name": "D3_17"
    },
    {
      "mesh": 17,
      "name": "Object_38"
    },
    {
      "children": [
        40
      ],
      "matrix": [
        0.05000000074505806,
        0.0,
        0.0,
        0.0,
        0.0,
        0.37986037135124207,
        0.0,
        0.0,
        0.0,
        0.0,
        0.012866237200796604,
        0.0,
        -5.0,
        2.0562214851379395,
        -1.9776779413223267,
        1.0
      ],
      "name": "D2_18"
    },
    {
      "mesh": 18,
      "name": "Object_40"
    },
    {
      "children": [
        42
      ],
      "matrix": [
        0.9988245304295651,
        0.03366102298825716,
        0.034878258894946196,
        0.0,
        -0.000729813663936174,
        0.020899117943429694,
        0.0007302572278840212,
        0.0,
        -0.036352702539975947,
        -0.03895962395730702,
        1.0786487925126669,
        0.0,
        -5.0,
        3.0839109420776367,
        -2.0,
        1.0
      ],
      "name": "D1_19"
    },
    {
      "mesh": 19,
      "name": "Object_42"
    },
    {
      "children": [
        44
      ],
      "matrix": [
        0.053061600774526596,
        0.0,
        0.0,
        0.0,
        0.0,
        0.7153239250183105,
        0.0,
        0.0,
        0.0,
        0.0,
        0.039629977196455,
        0.0,
        2.287402391433716,
        -0.0607418417930603,
        2.793198823928833,
        1.0
      ],
      "name": "C5_20"
    },
    {
      "mesh": 20,
      "name": "Object_44"
    },
    {
      "children": [
        46
      ],
      "matrix": [
        1.0,
        0.0,
        0.0,
        0.0,
        0.0,
        0.024993272614045443,
        0.0007521625269507786,
        0.0,
        0.0,
        -0.032948292017175425,
        1.094824077305212,
        0.0,
        2.5,
        1.0063648223876953,
        2.0136008262634277,
        1.0
      ],
      "name": "C4_21"
    },
    {
      "mesh": 21,
      "name": "Object_46"
    },
    {
      "children": [
        48
      ],
      "matrix": [
        0.230913907289505,
        0.0,
        0.0,
        0.0,
        0.0,
        0.016675330698490143,
        0.0,
        0.0,
        0.0,
        0.0,
        0.0703754797577858,
        0.0,
        3.049999952316284,
        2.043609619140625,
        0.9642384052276611,
        1.0
      ],
      "name": "C3_22"
    },
    {
      "mesh": 22,
      "name": "Object_48"
    },
    {
      "children": [
        50
      ],
      "matrix": [
        1.100000023841858,
        0.0,
        0.0,
        0.0,
        0.0,
        0.05000000074505806,
        0.0,
        0.0,
        0.0,
        0.0,
        1.25,
        0.0,
        2.5,
        3.0,
        -0.9713165163993835,
        1.0
      ],
      "name": "C2_23"
    },
    {
      "mesh": 23,
      "name": "Object_50"
    },
    {
      "children": [
        52
      ],
      "matrix": [
        7.586433165039939e-08,
        0.0,
        -0.15000000596044527,
        0.0,
        0.0,
        0.5,
        0.0,
        0.0,
        0.499999999999936,
        0.0,
        2.528810954527394e-07,
        0.0,
        2.5004329681396484,
        4.204951763153076,
        -0.9939087629318237,
        1.0
      ],
      "name": "C1_24"
    },
    {
      "mesh": 24,
      "name": "Object_52"
    },
    {
      "children": [
        54
      ],
      "matrix": [
        0.03780995309352875,
        0.0,
        0.0,
        0.0,
        0.0,
        0.03780995309352875,
        0.0,
        0.0,
        0.0,
        0.0,
        0.03780995309352875,
        0.0,
        -2.4859306812286377,
        -0.019485656172037125,
        0.09006810188293457,
        1.0
      ],
      "name": "B5_25"
    },
    {
      "mesh": 25,
      "name": "Object_54"
    },
    {
      "children": [
        56
      ],
      "matrix": [
        1.100000023841858,
        0.0,
        0.0,
        0.0,
        0.0,
        0.02500000037252903,
        0.0,
        0.0,
        0.0,
        0.0,
        2.0999999046325684,
        0.0,
        -2.5,
        1.0,
        -1.0,
        1.0
      ],
      "name": "B4_26"
    },
    {
      "mesh": 26,
      "name": "Object_56"
    },
    {
      "children": [
        58
      ],
      "matrix": [
        0.2953405172568396,
        -0.017653503604413097,
        -0.0,
        0.0,
        0.004166431156529863,
        0.06970378008005916,
        0.0,
        0.0,
        0.0,
        0.0,
        0.016614632681012154,
        0.0,
        -2.5015981197357178,
        2.1294236183166504,
        -1.8446598052978516,
        1.0
      ],
      "name": "B3_27"
    },
    {
      "mesh": 27,
      "name": "Object_58"
    },
    {
      "children": [
        60
      ],
      "matrix": [
        0.823947012424469,
        0.0,
        0.0,
        0.0,
        0.0,
        0.014999999664723873,
        0.0,
        0.0,
        0.0,
        0.0,
        0.0255766361951828,
        0.0,
        -2.4995341300964355,
        4.051913738250732,
        -1.7282558679580688,
        1.0
      ],
      "name": "B2_28"
    },
    {
      "mesh": 28,
      "name": "Object_60"
    },
    {
      "children": [
        62
      ],
      "matrix": [
        1.0,
        0.0,
        0.0,
        0.0,
        0.0,
        1.0,
        0.0,
        0.0,
        0.0,
        0.0,
        1.0,
        0.0,
        -2.600590705871582,
        5.077677249908447,
        -2.094024658203125,
        1.0
      ],
      "name": "B1_29"
    },
    {
      "mesh": 29,
      "name": "Object_62"
    },
    {
      "children": [
        64
      ],
      "matrix": [
        0.9625166058540344,
        0.0,
        0.0,
        0.0,
        0.0,
        0.9625166058540344,
        0.0,
        0.0,
        0.0,
        0.0,
        0.027410803362727165,
        0.0,
        0.0,
        -0.015174612402915955,
        2.126666307449341,
        1.0
      ],
      "name": "A6_30"
    },
    {
      "mesh": 30,
      "name": "Object_64"
    },
    {
      "children": [
        66
      ],
      "matrix": [
        1.100000023841858,
        0.0,
        0.0,
        0.0,
        0.0,
        0.02500000037252903,
        0.0,
        0.0,
        0.0,
        0.0,
        3.0999999046325684,
        0.0,
        0.0,
        1.0,
        1.9446760416030884,
        1.0
      ],
      "name": "A5_31"
    },
    {
      "mesh": 31,
      "name": "Object_66"
    },
    {
      "children": [
        68
      ],
      "matrix": [
        0.12236033380031586,
        0.0,
        0.0,
        0.0,
        0.0,
        0.11639379980449427,
        -0.037742983870979636,
        0.0,
        0.0,
        0.005424421570693338,
        0.016728116688196366,
        0.0,
        0.006638824939727783,
        2.0094618797302246,
        0.009557723999023438,
        1.0
      ],
      "name": "A4_32"
    },
    {
      "mesh": 32,
      "name": "Object_68"
    },
    {
      "children": [
        70
      ],
      "matrix": [
        1.100000023841858,
        0.0,
        0.0,
        0.0,
        0.0,
        0.02500000037252903,
        0.0,
        0.0,
        0.0,
        0.0,
        2.0999999046325684,
        0.0,
        0.0,
        3.0,
        -1.0,
        1.0
      ],
      "name": "A3_33"
    },
    {
      "mesh": 33,
      "name": "Object_70"
    },
    {
      "children": [
        72
      ],
      "matrix": [
        0.353553238605186,
        -6.3749001250059996e-09,
        -0.35355345828763035,
        0.0,
        0.2500000840205895,
        0.3535533018254661,
        0.24999992230672355,
        0.0,
        0.25000004151600985,
        -0.3535534372142322,
        0.24999989255196742,
        0.0,
        0.9005159735679626,
        5.117892742156982,
        -0.9917546510696411,
        1.0
      ],
      "name": "A2_34"
    },
    {
      "mesh": 34,
      "name": "Object_72"
    },
    {
      "children": [
        74
      ],
      "matrix": [
        1.0,
        0.0,
        -0.0,
        0.0,
        -0.0,
        0.024980542893823843,
        -0.0010963974897283462,
        0.0,
        0.0,
        0.04802741160603098,
        1.0942662920553126,
        0.0,
        0.0,
        5.0367655754089355,
        -2.0,
        1.0
      ],
      "name": "A1_35"
    },
    {
      "mesh": 35,
      "name": "Object_74"
    }
  ],
  "samplers": [
    {
      "magFilter": 9729,
      "minFilter": 9987,
      "wrapS": 10497,
      "wrapT": 10497
    }
  ],
  "scene": 0,
  "scenes": [
    {
      "name": "Sketchfab_Scene",
      "nodes": [
        0
      ]
    }
  ],
  "textures": [
    {
      "sampler": 0,
      "source": 0
    },
    {
      "sampler": 0,
      "source": 1
    },
    {
      "sampler": 0,
      "source": 2
    },
    {
      "sampler": 0,
      "source": 3
    },
    {
      "sampler": 0,
      "source": 4
    },
    {
      "sampler": 0,
      "source": 5
    },
    {
      "sampler": 0,
      "source": 6
    },
    {
      "sampler": 0,
      "source": 7
    },
    {
      "sampler": 0,
      "source": 8
    },
    {
      "sampler": 0,
      "source": 9
    },
    {
      "sampler": 0,
      "source": 10
    },
    {
      "sampler": 0,
      "source": 11
    },
    {
      "sampler": 0,
      "source": 12
    },
    {
      "sampler": 0,
      "source": 13
    },
    {
      "sampler": 0,
      "source": 14
    },
    {
      "sampler": 0,
      "source": 15
    },
    {
      "sampler": 0,
      "source": 16
    },
    {
      "sampler": 0,
      "source": 17
    },
    {
      "sampler": 0,
      "source": 18
    },
    {
      "sampler": 0,
      "source": 19
    },
    {
      "sampler": 0,
      "source": 20
    },
    {
      "sampler": 0,
      "source": 21
    },
    {
      "sampler": 0,
      "source": 22
    },
    {
      "sampler": 0,
      "source": 23
    },
    {
      "sampler": 0,
      "source": 24
    },
    {
      "sampler": 0,
      "source": 25
    },
    {
      "sampler": 0,
      "source": 26
    },
    {
      "sampler": 0,
      "source": 27
    },
    {
      "sampler": 0,
      "source": 28
    },
    {
      "sampler": 0,
      "source": 29
    },
    {
      "sampler": 0,
      "source": 30
    },
    {
      "sampler": 0,
      "source": 31
    },
    {
      "sampler": 0,
      "source": 32
    },
    {
      "sampler": 0,
      "source": 33
    },
    {
      "sampler": 0,
      "source": 34
    },
    {
      "sampler": 0,
      "source": 35
    },
    {
      "sampler": 0,
      "source": 36
    },
    {
      "sampler": 0,
      "source": 37
    },
    {
      "sampler": 0,
      "source": 38
    },
    {
      "sampler": 0,
      "source": 39
    },
    {
      "sampler": 0,
      "source": 40
    },
    {
      "sampler": 0,
      "source": 41
    }
  ]
}
