{
  "accessors": [
    {
      "bufferView": 2,
      "componentType": 5126,
      "count": 826,
      "max": [
        0.76983642578125,
        2.1874120235443115,
        5.653169631958008
      ],
      "min": [
        -0.7702871561050415,
        -4.531776428222656,
        -4.239360332489014
      ],
      "type": "VEC3"
    },
    {
      "bufferView": 2,
      "byteOffset": 9912,
      "componentType": 5126,
      "count": 826,
      "max": [
        1.0,
        1.0,
        1.0
      ],
      "min": [
        -1.0,
        -0.9999979734420776,
        -1.0
      ],
      "type": "VEC3"
    },
    {
      "bufferView": 1,
      "componentType": 5126,
      "count": 826,
      "max": [
        0.6250000596046448,
        1.0
      ],
      "min": [
        0.0,
        0.0
      ],
      "type": "VEC2"
    },
    {
      "bufferView": 0,
      "componentType": 5125,
      "count": 1374,
      "type": "SCALAR"
    }
  ],
  "asset": {
    "extras": {
      "author": "cyberdevz (https://sketchfab.com/cyberdevz)",
      "license": "CC-BY-4.0 (http://creativecommons.org/licenses/by/4.0/)",
      "source": "https://sketchfab.com/3d-models/glock-19-0a1d52da358e4993b3847e56ada8d611",
      "title": "Glock-19"
    },
    "generator": "Sketchfab-16.72.0",
    "version": "2.0"
  },
  "bufferViews": [
    {
      "buffer": 0,
      "byteLength": 5496,
      "name": "floatBufferViews",
      "target": 34963
    },
    {
      "buffer": 0,
      "byteLength": 6608,
      "byteOffset": 5496,
      "byteStride": 8,
      "name": "floatBufferViews",
      "target": 34962
    },
    {
      "buffer": 0,
      "byteLength": 19824,
      "byteOffset": 12104,
      "byteStride": 12,
      "name": "floatBufferViews",
      "target": 34962
    }
  ],
  "buffers": [
    {
      "byteLength": 31928,
      "uri": "scene.bin"
    }
  ],
  "materials": [
    {
      "doubleSided": true,
      "name": "Black-Pistol",
      "pbrMetallicRoughness": {
        "baseColorFactor": [
          0.0209582,
          0.0209582,
          0.0209582,
          1.0
        ],
        "metallicFactor": 0.5,
        "roughnessFactor": 0.4
      }
    }
  ],
  "meshes": [
    {
      "name": "Object_0",
      "primitives": [
        {
          "attributes": {
            "NORMAL": 1,
            "POSITION": 0,
            "TEXCOORD_0": 2
          },
          "indices": 3,
          "material": 0,
          "mode": 4
        }
      ]
    }
  ],
  "nodes": [
    {
      "children": [
        1
      ],
      "matrix": [
        2.220446049250313e-16,
        -2.220446049250313e-16,
        1.0,
        0.0,
        1.0,
        4.930380657631324e-32,
        -2.220446049250313e-16,
        0.0,
        0.0,
        1.0,
        2.220446049250313e-16,
        0.0,
        0.0,
        0.0,
        0.0,
        1.0
      ],
      "name": "Sketchfab_model"
    },
    {
      "children": [
        2
      ],
      "name": "root"
    },
    {
      "children": [
        3
      ],
      "matrix": [
        1.0,
        0.0,
        0.0,
        0.0,
        0.0,
        2.220446049250313e-16,
        1.0,
        0.0,
        0.0,
        -1.0,
        2.220446049250313e-16,
        0.0,
        0.0,
        0.0,
        0.0,
        1.0
      ],
      "name": "GLTF_SceneRootNode"
    },
    {
      "children": [
        4
      ],
      "matrix": [
        0.017940176650881767,
        0.0,
        0.0,
        0.0,
        0.0,
        0.02012333646416664,
        0.0,
        0.0,
        0.0,
        0.0,
        0.02012333646416664,
        0.0,
        0.0,
        -0.007999993860721588,
        -0.019999999552965164,
        1.0
      ],
      "name": "Pistol_0"
    },
    {
      "mesh": 0,
      "name": "Object_4"
    }
  ],
  "scene": 0,
  "scenes": [
    {
      "name": "Sketchfab_Scene",
      "nodes": [
        0
      ]
    }
  ]
}
